<?xml version="1.0" standalone="no"?>  
<!DOCTYPE svg PUBLIC "-//W3C//DTD SVG 20010904//EN"  
 "http://www.w3.org/TR/2001/REC-SVG-20010904/DTD/svg10.dtd">  
<svg version="1.0" xmlns="http://www.w3.org/2000/svg"  
 width="16.000000pt" height="16.000000pt" viewBox="0 0 16.000000 16.000000"  
 preserveAspectRatio="xMidYMid meet">

<rect width="16.000000" height="16.000000" fill="#FFFFFF"/>

<g transform="translate(0.000000,16.000000) scale(0.100000,-0.100000)"  
fill="#0000FF" stroke="none">  
<path d="M43 148 c-55 -27 -50 -114 8 -138 89 -37 151 99 63 139 -30 13 -42  
13 -71 -1z m72 -28 c-4 -6 -11 -8 -16 -5 -5 4 -9 -14 -9 -39 0 -25 -4 -46 -10  
-46 -5 0 -10 16 -10 36 0 23 -6 42 -17 50 -16 12 -13 13 25 14 27 0 41 -4 37  
-10z"/>  
</g>  
</svg>

